
<svg width="18" height="18" viewBox="0 0 18 18" fill="none" xmlns="http://www.w3.org/2000/svg">
<path d="M1.7998 4.27498C1.7998 4.09595 1.87092 3.92427 1.99751 3.79768C2.12409 3.67109 2.29578 3.59998 2.4748 3.59998H15.5248C15.7038 3.59998 15.8755 3.67109 16.0021 3.79768C16.1287 3.92427 16.1998 4.09595 16.1998 4.27498C16.1998 4.454 16.1287 4.62569 16.0021 4.75227C15.8755 4.87886 15.7038 4.94998 15.5248 4.94998H2.4748C2.29578 4.94998 2.12409 4.87886 1.99751 4.75227C1.87092 4.62569 1.7998 4.454 1.7998 4.27498ZM1.7998 8.77498C1.7998 8.59595 1.87092 8.42427 1.99751 8.29768C2.12409 8.17109 2.29578 8.09998 2.4748 8.09998H15.5248C15.7038 8.09998 15.8755 8.17109 16.0021 8.29768C16.1287 8.42427 16.1998 8.59595 16.1998 8.77498C16.1998 8.954 16.1287 9.12569 16.0021 9.25227C15.8755 9.37886 15.7038 9.44998 15.5248 9.44998H2.4748C2.29578 9.44998 2.12409 9.37886 1.99751 9.25227C1.87092 9.12569 1.7998 8.954 1.7998 8.77498ZM2.4748 12.6C2.29578 12.6 2.12409 12.6711 1.99751 12.7977C1.87092 12.9243 1.7998 13.096 1.7998 13.275C1.7998 13.454 1.87092 13.6257 1.99751 13.7523C2.12409 13.8789 2.29578 13.95 2.4748 13.95H15.5248C15.7038 13.95 15.8755 13.8789 16.0021 13.7523C16.1287 13.6257 16.1998 13.454 16.1998 13.275C16.1998 13.096 16.1287 12.9243 16.0021 12.7977C15.8755 12.6711 15.7038 12.6 15.5248 12.6H2.4748Z" fill="#0C1B33"/>
</svg>