<svg width="24" height="24" viewBox="0 0 24 24" fill="none" xmlns="http://www.w3.org/2000/svg">
  <path d="M3.00977 15.709C3.00977 20.199 4.80977 21.999 9.29977 21.999H14.6898C19.1798 21.999 20.9798 20.199 20.9798 15.709V11.219M11.9998 12C13.8298 12 15.1798 10.51 14.9998 8.68L14.3398 2H9.66977L8.99977 8.68C8.81977 10.51 10.1698 12 11.9998 12Z" stroke="#0C1B33" stroke-width="1.5" stroke-linecap="round" stroke-linejoin="round"/>
  <path d="M18.3099 12C20.3299 12 21.8099 10.36 21.6099 8.35L21.3299 5.6C20.9699 3 19.9699 2 17.3499 2H14.2999L14.9999 9.01C15.1699 10.66 16.6599 12 18.3099 12ZM5.63988 12C7.28988 12 8.77988 10.66 8.93988 9.01L9.15988 6.8L9.63988 2H6.58988C3.96988 2 2.96988 3 2.60988 5.6L2.33988 8.35C2.13988 10.36 3.61988 12 5.63988 12ZM11.9999 17C10.3299 17 9.49988 17.83 9.49988 19.5V22H14.4999V19.5C14.4999 17.83 13.6699 17 11.9999 17Z" stroke="#0C1B33" stroke-width="1.5" stroke-linecap="round" stroke-linejoin="round"/>
</svg>
