
<svg width="24" height="24" viewBox="0 0 24 24" fill="none" xmlns="http://www.w3.org/2000/svg">
<path d="M9.5 13.748C9.5 14.718 10.25 15.498 11.17 15.498H13.05C13.85 15.498 14.5 14.818 14.5 13.968C14.5 13.058 14.1 12.728 13.51 12.518L10.5 11.468C9.91 11.258 9.51 10.938 9.51 10.018C9.51 9.178 10.16 8.488 10.96 8.488H12.84C13.76 8.488 14.51 9.268 14.51 10.238M12 7.5V16.5M17 3V7M17 7H21M17 7L22 2" stroke="#0C1B33" stroke-width="1.5" stroke-linecap="round" stroke-linejoin="round"/>
<path d="M12 2C6.48 2 2 6.48 2 12C2 15.94 4.28 19.35 7.6 20.98M22 12C22 17.52 17.52 22 12 22" stroke="#0C1B33" stroke-width="1.5" stroke-linecap="round" stroke-linejoin="round"/>
</svg>
