<svg width="52" height="51" viewBox="0 0 52 51" fill="none" xmlns="http://www.w3.org/2000/svg">
<path d="M27.4712 8.415C28.5112 9.92375 29.1178 11.73 29.1178 13.685C29.0962 18.785 25.0012 22.9287 19.8445 23.0987C19.6278 23.0775 19.3678 23.0775 19.1295 23.0987C16.6426 23.0159 14.2862 21.987 12.5594 20.2299C10.8325 18.4728 9.87078 16.1255 9.87784 13.685C9.87784 8.47875 14.1678 4.25 19.4978 4.25M35.5572 8.5C39.7605 8.5 43.1405 11.8363 43.1405 15.9375C43.1405 19.9537 39.8905 23.2262 35.8388 23.375C35.6517 23.3537 35.4627 23.3537 35.2755 23.375M39.7367 42.5C41.2967 42.1812 42.77 41.565 43.9833 40.6512C47.3633 38.165 47.3633 34.0637 43.9833 31.5775C42.7917 30.685 41.34 30.09 39.8017 29.75M9.01117 30.94C3.76784 34.3825 3.76784 39.9925 9.01117 43.4138C14.9695 47.3238 24.7412 47.3238 30.6995 43.4138C35.9428 39.9713 35.9428 34.3613 30.6995 30.94C24.7628 27.0513 14.9912 27.0513 9.01117 30.94Z" stroke="#000" stroke-width="3" stroke-linecap="round" stroke-linejoin="round"/>
</svg>
