<svg width="51" height="51" viewBox="0 0 51 51" fill="none" xmlns="http://www.w3.org/2000/svg">
<path d="M25.8187 35.0625V39.525" stroke="#0C1B33" stroke-width="1.5" stroke-linecap="round" stroke-linejoin="round"/>
<path d="M15.1937 46.75H36.4437V44.625C36.4437 42.2875 34.5312 40.375 32.1937 40.375H19.4437C17.1062 40.375 15.1937 42.2875 15.1937 44.625V46.75Z" stroke="#0C1B33" stroke-width="1.5" stroke-miterlimit="10"/>
<path d="M13.0688 46.75H38.5688M18.0838 32.0237C15.8146 30.7211 13.9298 28.8423 12.6201 26.5773C11.3103 24.3122 10.6221 21.7414 10.625 19.125V12.75C10.625 8.05375 14.4288 4.25 19.125 4.25H31.875C36.5713 4.25 40.375 8.05375 40.375 12.75V19.125C40.375 27.2425 33.8938 33.83 25.8188 34H25.5" stroke="#0C1B33" stroke-width="1.5" stroke-linecap="round" stroke-linejoin="round"/>
<path d="M11.6238 24.7605C10.03 24.2505 8.62752 23.3155 7.52252 22.2105C5.61002 20.0855 4.33502 17.5355 4.33502 14.5605C4.33502 11.5855 6.67252 9.24805 9.64752 9.24805H11.0288C10.6038 10.2255 10.3913 11.3093 10.3913 12.4355V18.8105C10.3913 20.9355 10.8375 22.933 11.6238 24.7605ZM39.3763 24.7605C40.97 24.2505 42.3725 23.3155 43.4775 22.2105C45.39 20.0855 46.665 17.5355 46.665 14.5605C46.665 11.5855 44.3275 9.24805 41.3525 9.24805H39.9713C40.3963 10.2255 40.6088 11.3093 40.6088 12.4355V18.8105C40.6088 20.9355 40.1625 22.933 39.3763 24.7605Z" stroke="#0C1B33" stroke-width="1.5" stroke-linecap="round" stroke-linejoin="round"/>
</svg>
