<svg width="51" height="51" viewBox="0 0 51 51" fill="none" xmlns="http://www.w3.org/2000/svg">
<path d="M18.0625 11.4006C21.4361 9.62131 25.336 9.11085 29.0539 9.96194C32.7719 10.813 36.0613 12.9693 38.3249 16.039C40.5885 19.1088 41.6761 22.8886 41.3902 26.692C41.1044 30.4954 39.464 34.0701 36.7671 36.7671C34.0701 39.4641 30.4953 41.1044 26.692 41.3903C22.8886 41.6761 19.1088 40.5885 16.039 38.3249C12.9692 36.0613 10.813 32.7719 9.96191 29.054C9.11082 25.336 9.62128 21.4361 11.4006 18.0625" stroke="#0C1B33" stroke-width="1.5" stroke-linecap="round" stroke-linejoin="round"/>
<path d="M25.5 8.5V4.25M8.5 25.5H4.25M25.5 42.5V46.75M42.5 25.5H46.75M25.5 31.875C27.1908 31.875 28.8123 31.2034 30.0078 30.0078C31.2034 28.8123 31.875 27.1908 31.875 25.5C31.875 23.8092 31.2034 22.1877 30.0078 20.9922C28.8123 19.7966 27.1908 19.125 25.5 19.125C23.8092 19.125 22.1877 19.7966 20.9922 20.9922C19.7966 22.1877 19.125 23.8092 19.125 25.5C19.125 27.1908 19.7966 28.8123 20.9922 30.0078C22.1877 31.2034 23.8092 31.875 25.5 31.875Z" stroke="#0C1B33" stroke-width="1.5" stroke-linecap="round" stroke-linejoin="round"/>
</svg>
