<svg width="51" height="51" viewBox="0 0 51 51" fill="none" xmlns="http://www.w3.org/2000/svg">
<path d="M4.25 27.6887V31.875C4.25 42.5 8.5 46.75 19.125 46.75H31.875C42.5 46.75 46.75 42.5 46.75 31.875V19.125C46.75 8.5 42.5 4.25 31.875 4.25H19.125C8.5 4.25 4.25 8.5 4.25 19.125" stroke="#0C1B33" stroke-width="1.5" stroke-linecap="round" stroke-linejoin="round"/>
<path d="M25.5 32.9375C26.4767 32.9375 27.4438 32.7451 28.3462 32.3714C29.2486 31.9976 30.0685 31.4497 30.7591 30.7591C31.4497 30.0685 31.9976 29.2486 32.3714 28.3462C32.7451 27.4438 32.9375 26.4767 32.9375 25.5C32.9375 24.5233 32.7451 23.5562 32.3714 22.6538C31.9976 21.7514 31.4497 20.9315 30.7591 20.2409C30.0685 19.5503 29.2486 19.0024 28.3462 18.6286C27.4438 18.2549 26.4767 18.0625 25.5 18.0625C23.5275 18.0625 21.6357 18.8461 20.2409 20.2409C18.8461 21.6357 18.0625 23.5275 18.0625 25.5C18.0625 27.4725 18.8461 29.3643 20.2409 30.7591C21.6357 32.1539 23.5275 32.9375 25.5 32.9375Z" stroke="#0C1B33" stroke-width="1.5" stroke-linecap="round" stroke-linejoin="round"/>
<path d="M37.4764 14.875H37.502" stroke="#0C1B33" stroke-width="2" stroke-linecap="round" stroke-linejoin="round"/>
</svg>
